<svg width="24" height="24" viewBox="0 0 24 24" fill="none" xmlns="http://www.w3.org/2000/svg">
    <path d="M14.783 1.51812L14.7837 1.51915C14.9724 1.81159 15.0814 2.14713 15.054 2.47877L15.054 2.47876L15.0536 2.48424C15.0182 2.97727 15.1792 3.44078 15.4232 3.83784L15.4231 3.8379L15.4291 3.84715C16.2323 5.09158 17.974 5.53668 19.3284 4.84995L19.3349 4.84662L19.3414 4.8431C20.394 4.26986 21.7121 4.62421 22.3039 5.57808C22.3041 5.57848 22.3044 5.57888 22.3046 5.57928L23.1679 6.99263L23.1678 6.99266L23.1716 6.99859C23.7596 7.93166 23.4483 9.13348 22.4052 9.68619L22.4052 9.68609L22.3958 9.69133C21.0683 10.4317 20.5658 12.1024 21.3916 13.3969C21.6181 13.7522 21.912 14.1187 22.3945 14.3455C22.7464 14.5248 23.0321 14.8134 23.2419 15.1197C23.5962 15.6763 23.5874 16.3791 23.2047 17.0463L22.3061 18.4782L22.3051 18.4799C21.9222 19.0955 21.1954 19.492 20.4448 19.492C20.074 19.492 19.6605 19.392 19.3313 19.2018C18.8925 18.9367 18.407 18.856 17.9405 18.856C16.4169 18.856 15.1009 20.0425 15.0526 21.5237L15.0523 21.5319V21.54C15.0523 22.604 14.1301 23.5 12.8802 23.5H11.1245C9.86002 23.5 8.93948 22.6025 8.93948 21.54H8.9396L8.93936 21.5291C8.90705 20.0423 7.58634 18.856 6.06423 18.856C5.5906 18.856 5.10084 18.9346 4.6701 19.2037C4.34226 19.3921 3.91779 19.492 3.5599 19.492C2.7953 19.492 2.06922 19.0946 1.68698 18.4804C1.68689 18.4803 1.68679 18.4801 1.6867 18.4799L0.7978 17.0429C0.797613 17.0426 0.797425 17.0423 0.797238 17.042C0.409454 16.408 0.403214 15.6797 0.766333 15.1141L0.773065 15.1036L0.779267 15.0928C0.930234 14.8297 1.23721 14.5348 1.60023 14.3442C2.0798 14.1178 2.37223 13.7528 2.60553 13.4084L2.61064 13.4009L2.61547 13.3931C3.42417 12.1001 2.92352 10.4317 1.59603 9.69133L1.59606 9.69126L1.58841 9.68717C0.557202 9.13525 0.242928 7.93067 0.822283 6.99528L0.823911 6.99263L1.68689 5.57978C2.29225 4.62261 3.60024 4.26995 4.66514 4.84411L4.66509 4.8442L4.67425 4.8489C6.01838 5.53827 7.76039 5.09013 8.56267 3.84715L8.56277 3.84721L8.56853 3.83784C8.81183 3.44204 8.97253 2.98023 8.93853 2.48895C8.92019 2.14144 9.02573 1.80607 9.21414 1.52952L9.2143 1.52963L9.22169 1.51812C9.60436 0.922029 10.3098 0.521897 11.0925 0.5H12.906C13.6866 0.5 14.3949 0.913627 14.783 1.51812ZM12.0153 8.116C9.74979 8.116 7.84912 9.8159 7.84912 12.012C7.84912 14.2103 9.75219 15.896 12.0153 15.896C14.2855 15.896 16.1427 14.2037 16.1427 12.012C16.1427 9.82257 14.2879 8.116 12.0153 8.116Z" stroke="#2A2C38"/>
</svg>