<svg width="231" height="24" viewBox="0 0 231 24" fill="none" xmlns="http://www.w3.org/2000/svg">
    <path d="M1.4209 1.00488H7.99805C10.791 1.00488 12.7783 1.39062 13.96 2.16211C15.4639 3.12891 16.2158 4.47168 16.2158 6.19043C16.2158 7.23535 15.9277 8.14355 15.3516 8.91504C14.7754 9.68652 13.9697 10.2432 12.9346 10.585C11.8994 10.9268 10.2539 11.0977 7.99805 11.0977H6.19629V18.1875L7.9834 19.7988H1.17188L3.20801 18.085V12.2109C3.09082 12.2012 3.00781 12.1963 2.95898 12.1963C2.25586 12.1963 1.58203 12.3477 0.9375 12.6504L0.805664 12.3867C1.45996 12.0156 2.0459 11.8301 2.56348 11.8301H3.09082L3.20801 11.8154V11.0977C2.9834 11.0684 2.83203 11.0537 2.75391 11.0537C1.70898 11.0537 0.874023 11.3076 0.249023 11.8154L0.102539 11.5957C0.698242 10.502 1.65527 9.95508 2.97363 9.95508H3.20801V2.77734L1.4209 1.00488ZM6.19629 2.51367V9.85254H6.38672L6.76758 9.86719C6.80664 9.86719 6.87012 9.8623 6.95801 9.85254V3.31934H8.56934C9.81934 3.31934 10.6982 3.43164 11.2061 3.65625C11.7236 3.87109 12.1631 4.3252 12.5244 5.01855C12.1631 4.52051 11.709 4.17383 11.1621 3.97852C10.625 3.77344 9.86328 3.6709 8.87695 3.6709H7.36816V9.85254C9.30176 9.85254 10.7178 9.56934 11.6162 9.00293C12.5244 8.43652 12.9785 7.54785 12.9785 6.33691C12.9785 4.97949 12.5732 3.99316 11.7627 3.37793C10.9619 2.7627 9.66797 2.45508 7.88086 2.45508C7.42188 2.45508 6.86035 2.47461 6.19629 2.51367ZM15.4688 2.57227C16.0645 2.86523 16.543 3.38281 16.9043 4.125C17.2656 4.85742 17.4463 5.69238 17.4463 6.62988C17.4463 8.74902 16.626 10.2725 14.9854 11.2002C13.7451 11.9033 11.626 12.2549 8.62793 12.2549C8.12988 12.2549 7.70996 12.2451 7.36816 12.2256V18.2754L9.66797 21H2.3291L1.93359 20.6045H8.83301L6.95801 18.4365V11.8301C7.80762 11.8789 8.71094 11.9033 9.66797 11.9033C12.1875 11.9033 14.0576 11.459 15.2783 10.5703C16.499 9.68164 17.1094 8.31934 17.1094 6.4834C17.1094 5.72168 16.9922 5.0625 16.7578 4.50586C16.5234 3.93945 16.0938 3.29492 15.4688 2.57227ZM25.8545 1.00488H32.8564L30.791 3.01172V18.6709H30.9082L31.4355 18.7148H31.5674V3.1582L33.1494 1.56152L33.3545 1.88379L31.9336 3.33398V18.7148C32.373 18.7539 32.793 18.7734 33.1934 18.7734C34.7461 18.7734 35.918 18.4316 36.709 17.748C37.5098 17.0547 38.0469 15.917 38.3203 14.335C39.2383 17.001 40.1807 18.8223 41.1475 19.7988H25.8545L27.876 18.1436V2.86523L25.8545 1.00488ZM42.583 19.6816L41.9238 21H26.6309L26.2646 20.6045H41.7627L42.1875 19.6816C41.1133 18.3633 40.2539 16.8936 39.6094 15.2725L39.5508 15.1113L40.0195 15.2871L40.1221 15.5361C40.7764 16.9814 41.5576 18.3145 42.4658 19.5352L42.583 19.6816ZM63.3545 1.00488L61.8311 2.7334L64.2334 9.12012L64.8193 8.79785L62.6514 3.02637L64.2041 1.23926L64.585 1.40039L63.1055 3.11426L65.1562 8.57812C65.2734 8.49023 65.3418 8.43652 65.3613 8.41699L65.8447 8.00684C66.1377 7.77246 66.3232 7.60645 66.4014 7.50879C66.6553 8.62207 67.0459 9.61816 67.5732 10.4971C67.29 10.4775 67.085 10.4678 66.958 10.4678C66.0303 10.4678 65.3516 10.6143 64.9219 10.9072L67.5732 18.0996L69.7705 19.7988H62.373L64.3945 18.0996L62.7686 13.8223C61.6943 14.9062 60.8691 15.9365 60.293 16.9131L59.9561 16.8252C60.5322 15.8682 61.3916 14.7988 62.5342 13.6172L62.6514 13.4707L62.373 12.8262C61.2109 13.793 60.249 14.916 59.4873 16.1953L59.2236 15.7705C58.7158 14.96 58.0664 14.0371 57.2754 13.002L57.1289 12.8262C56.377 14.4961 56.001 15.8535 56.001 16.8984C56.001 17.5137 56.1035 18.0361 56.3086 18.4658C56.5234 18.8857 57.0312 19.5938 57.832 20.5898C57.9004 20.6777 58.0078 20.8145 58.1543 21H50.2441L49.9512 20.6045H57.4072L57.1582 20.2969C56.5137 19.5156 56.0889 18.9102 55.8838 18.4805C55.6885 18.041 55.5908 17.5283 55.5908 16.9424C55.5908 15.9463 55.9961 14.4619 56.8066 12.4893L56.1621 11.8154C56.0352 12.1279 55.874 12.5869 55.6787 13.1924L55.1953 14.6865C54.9316 15.4873 54.7998 16.1514 54.7998 16.6787C54.7998 17.2256 54.8926 17.6797 55.0781 18.041C55.2637 18.4023 55.6543 18.8955 56.25 19.5205C56.3086 19.5791 56.3965 19.6719 56.5137 19.7988H49.1895C50.5859 19.0762 51.6895 18.1045 52.5 16.8838C53.3203 15.6631 54.1309 13.7783 54.9316 11.2295L54.9902 11.0244C54.4727 10.585 53.7256 10.3164 52.749 10.2188C53.2861 9.41797 53.7012 8.58301 53.9941 7.71387C54.1309 7.84082 54.2139 7.91895 54.2432 7.94824L54.9023 8.56348C55.127 8.77832 55.3955 8.99805 55.708 9.22266L55.9717 8.57812L55.7959 8.43164C55.3076 8.00195 54.8975 7.65527 54.5654 7.3916L54.4336 7.28906L54.668 6.9668C55.1855 7.30859 55.6836 7.7041 56.1621 8.15332L58.1543 2.6748L56.6016 1.00488H63.3545ZM59.7363 5.70703L58.125 9.95508C58.2129 10.0527 58.2617 10.1113 58.2715 10.1309L58.8721 10.8047C59.1943 11.1562 59.6045 11.7031 60.1025 12.4453L60.249 12.665C60.6689 12.1377 61.167 11.6152 61.7432 11.0977L59.7363 5.70703ZM59.0771 4.00781L56.748 10.1602C57.4902 10.9219 58.1299 11.6738 58.667 12.416L59.3408 13.3535C59.3506 13.3633 59.3994 13.4268 59.4873 13.5439C59.5752 13.4561 59.624 13.4023 59.6338 13.3828L59.8389 13.1338C59.8682 13.0947 59.9219 13.0312 60 12.9434C59.3164 11.8887 58.5205 10.9365 57.6123 10.0869L59.4873 5.13574L59.0771 4.00781ZM67.6904 8.21191C67.9053 9.09082 68.4424 10.2969 69.3018 11.8301C69.0869 11.8008 68.9648 11.7861 68.9355 11.7861L67.749 11.6836C67.2119 11.6348 66.8213 11.6104 66.5771 11.6104C66.5381 11.6104 66.4404 11.6152 66.2842 11.625L68.7305 18.1143L71.9971 21H63.5156L63.2373 20.6045H71.0156L68.3789 18.2754L65.7715 11.376C66.1035 11.2881 66.4844 11.2441 66.9141 11.2441C67.4414 11.2441 68.0273 11.2881 68.6719 11.376L68.4961 11.0537C67.8711 9.90137 67.4512 8.86133 67.2363 7.93359L67.6904 8.21191ZM96.709 1.00488C95.5957 1.58105 94.8779 2.1084 94.5557 2.58691C94.0674 3.3291 93.8232 4.44727 93.8232 5.94141V6.89355V19.7988H91.3477L84.4336 6.38086V14.335L84.4189 14.9941L84.5947 17.1035C84.79 18.0801 85.2344 18.8027 85.9277 19.2715L86.0449 19.374C84.6973 18.9248 84.0234 17.4844 84.0234 15.0527L84.0381 13.6758V5.66309L83.2471 4.125V12.5625C83.2471 15.2383 83.4229 16.9912 83.7744 17.8213C84.126 18.6514 84.9512 19.2568 86.25 19.6377L87.5244 21H79.585L79.3506 20.6045H86.6895L85.9277 19.7988H79.1016C80.293 19.3691 81.084 18.793 81.4746 18.0703C81.8652 17.3477 82.0605 16.1074 82.0605 14.3496V2.63086L80.1123 1.00488H87.5244L85.4443 2.39648L92.5342 16.2246V14.4668L86.4551 2.63086L88.5059 1.23926L88.7842 1.51758L86.9678 2.74805L92.5342 13.6758V6.83496V6.05859C92.5342 4.35938 92.3926 3.22656 92.1094 2.66016C91.8359 2.08398 91.1523 1.53223 90.0586 1.00488H96.709ZM97.2217 2.08887L96.958 2.52832C96.2061 2.7041 95.6934 3.03125 95.4199 3.50977C95.1562 3.97852 95.0244 4.77441 95.0244 5.89746V21H91.875L91.6846 20.6045H94.6289V6.04395C94.6289 4.66699 94.8047 3.70996 95.1562 3.17285C95.5176 2.62598 96.2061 2.26465 97.2217 2.08887ZM121.846 1.00488C121.758 1.1709 121.699 1.2832 121.67 1.3418L120.674 3.09961C120.332 3.72461 120.015 4.50586 119.722 5.44336L119.692 5.5166L119.546 5.41406L119.502 5.22363C119.219 4.11035 118.813 3.33887 118.286 2.90918C117.769 2.47949 116.973 2.26465 115.898 2.26465C115.459 2.26465 115.02 2.28418 114.58 2.32324H114.404V18.2021L116.133 19.7988H109.438L111.489 18.085V3.50977L110.449 3.49512C109.443 3.49512 108.726 3.69531 108.296 4.0957C107.876 4.48633 107.627 5.17969 107.549 6.17578H107.168C107.275 5.0332 107.568 4.2373 108.047 3.78809C108.535 3.33887 109.336 3.11426 110.449 3.11426L111.328 3.12891H111.489V2.41113C110.991 2.35254 110.518 2.32324 110.068 2.32324C108.809 2.32324 107.9 2.58203 107.344 3.09961C106.787 3.60742 106.479 4.47168 106.421 5.69238H106.245C105.825 4.33496 105.176 2.82129 104.297 1.15137L104.209 1.00488H121.846ZM122.769 1.92773C122.095 2.78711 121.387 4.21289 120.645 6.20508L120.586 6.35156L120.264 6.07324L120.308 5.94141C121.03 3.91992 121.729 2.51367 122.402 1.72266L122.476 1.63477L122.769 1.92773ZM118.857 4.21289C118.105 3.72461 117.227 3.48047 116.221 3.48047C115.996 3.48047 115.762 3.49512 115.518 3.52441L115.576 18.2461L117.905 21H110.42L110.083 20.6045H117.1L115.137 18.3633V3.09961L115.928 3.08496C116.875 3.08496 117.544 3.16309 117.935 3.31934C118.335 3.46582 118.643 3.76367 118.857 4.21289ZM145.781 1.45898L145.62 1.7373C144.741 3.27051 143.979 4.80371 143.335 6.33691L143.203 6.67383L143.013 6.57129C142.788 5.08691 142.266 3.91016 141.445 3.04102C140.625 2.17188 139.634 1.7373 138.472 1.7373C137.231 1.7373 136.196 2.2793 135.366 3.36328C134.321 4.71094 133.799 6.99609 133.799 10.2188C133.799 12.9922 134.277 15.165 135.234 16.7373C136.201 18.3096 137.539 19.0957 139.248 19.0957C140.615 19.0957 141.704 18.6416 142.515 17.7334C143.335 16.8154 143.823 15.5068 143.979 13.8076C144.019 13.3975 144.185 13.1924 144.478 13.1924C144.858 13.1924 145.049 13.5098 145.049 14.1445C145.049 15.0918 144.834 16.0732 144.404 17.0889C143.496 19.2373 141.621 20.3115 138.779 20.3115C136.24 20.3115 134.224 19.4229 132.729 17.6455C131.235 15.8584 130.488 13.4463 130.488 10.4092C130.488 7.60645 131.265 5.25781 132.817 3.36328C134.37 1.46875 136.299 0.521484 138.604 0.521484C139.697 0.521484 140.942 0.790039 142.339 1.32715C143.071 1.61035 143.677 1.75195 144.155 1.75195C144.673 1.75195 145.137 1.61035 145.547 1.32715L145.781 1.45898ZM141.533 3.99316C140.645 3.28027 139.805 2.92383 139.014 2.92383C136.484 2.92383 135.22 5.33594 135.22 10.1602C135.22 12.3574 135.513 14.1885 136.099 15.6533C136.685 17.1084 137.51 18.0508 138.574 18.4805V18.627C137.422 18.3926 136.499 17.5088 135.806 15.9756C135.122 14.4326 134.78 12.4844 134.78 10.1309C134.78 5.08203 136.167 2.55762 138.94 2.55762C139.878 2.55762 140.742 2.97266 141.533 3.80273V3.99316ZM146.309 14.0566C146.152 16.4785 145.474 18.3242 144.272 19.5938C143.081 20.8535 141.411 21.4834 139.263 21.4834C137.632 21.4834 136.113 20.9805 134.707 19.9746V19.8574C135.957 20.6777 137.466 21.0879 139.233 21.0879C141.167 21.0879 142.744 20.4678 143.965 19.2275C144.561 18.6221 145 17.9434 145.283 17.1914C145.566 16.4395 145.757 15.4434 145.854 14.2031L145.884 13.8662L146.309 14.0566ZM146.851 2.16211L146.689 2.44043C145.625 4.25684 144.775 5.91211 144.141 7.40625L143.745 7.21582L143.906 6.84961C144.395 5.82422 144.824 4.97461 145.195 4.30078L146.367 2.2207L146.514 1.95703L146.851 2.16211ZM168.911 1.00488L167.388 2.7334L169.79 9.12012L170.376 8.79785L168.208 3.02637L169.761 1.23926L170.142 1.40039L168.662 3.11426L170.713 8.57812C170.83 8.49023 170.898 8.43652 170.918 8.41699L171.401 8.00684C171.694 7.77246 171.88 7.60645 171.958 7.50879C172.212 8.62207 172.603 9.61816 173.13 10.4971C172.847 10.4775 172.642 10.4678 172.515 10.4678C171.587 10.4678 170.908 10.6143 170.479 10.9072L173.13 18.0996L175.327 19.7988H167.93L169.951 18.0996L168.325 13.8223C167.251 14.9062 166.426 15.9365 165.85 16.9131L165.513 16.8252C166.089 15.8682 166.948 14.7988 168.091 13.6172L168.208 13.4707L167.93 12.8262C166.768 13.793 165.806 14.916 165.044 16.1953L164.78 15.7705C164.272 14.96 163.623 14.0371 162.832 13.002L162.686 12.8262C161.934 14.4961 161.558 15.8535 161.558 16.8984C161.558 17.5137 161.66 18.0361 161.865 18.4658C162.08 18.8857 162.588 19.5938 163.389 20.5898C163.457 20.6777 163.564 20.8145 163.711 21H155.801L155.508 20.6045H162.964L162.715 20.2969C162.07 19.5156 161.646 18.9102 161.44 18.4805C161.245 18.041 161.147 17.5283 161.147 16.9424C161.147 15.9463 161.553 14.4619 162.363 12.4893L161.719 11.8154C161.592 12.1279 161.431 12.5869 161.235 13.1924L160.752 14.6865C160.488 15.4873 160.356 16.1514 160.356 16.6787C160.356 17.2256 160.449 17.6797 160.635 18.041C160.82 18.4023 161.211 18.8955 161.807 19.5205C161.865 19.5791 161.953 19.6719 162.07 19.7988H154.746C156.143 19.0762 157.246 18.1045 158.057 16.8838C158.877 15.6631 159.688 13.7783 160.488 11.2295L160.547 11.0244C160.029 10.585 159.282 10.3164 158.306 10.2188C158.843 9.41797 159.258 8.58301 159.551 7.71387C159.688 7.84082 159.771 7.91895 159.8 7.94824L160.459 8.56348C160.684 8.77832 160.952 8.99805 161.265 9.22266L161.528 8.57812L161.353 8.43164C160.864 8.00195 160.454 7.65527 160.122 7.3916L159.99 7.28906L160.225 6.9668C160.742 7.30859 161.24 7.7041 161.719 8.15332L163.711 2.6748L162.158 1.00488H168.911ZM165.293 5.70703L163.682 9.95508C163.77 10.0527 163.818 10.1113 163.828 10.1309L164.429 10.8047C164.751 11.1562 165.161 11.7031 165.659 12.4453L165.806 12.665C166.226 12.1377 166.724 11.6152 167.3 11.0977L165.293 5.70703ZM164.634 4.00781L162.305 10.1602C163.047 10.9219 163.687 11.6738 164.224 12.416L164.897 13.3535C164.907 13.3633 164.956 13.4268 165.044 13.5439C165.132 13.4561 165.181 13.4023 165.19 13.3828L165.396 13.1338C165.425 13.0947 165.479 13.0312 165.557 12.9434C164.873 11.8887 164.077 10.9365 163.169 10.0869L165.044 5.13574L164.634 4.00781ZM173.247 8.21191C173.462 9.09082 173.999 10.2969 174.858 11.8301C174.644 11.8008 174.521 11.7861 174.492 11.7861L173.306 11.6836C172.769 11.6348 172.378 11.6104 172.134 11.6104C172.095 11.6104 171.997 11.6152 171.841 11.625L174.287 18.1143L177.554 21H169.072L168.794 20.6045H176.572L173.936 18.2754L171.328 11.376C171.66 11.2881 172.041 11.2441 172.471 11.2441C172.998 11.2441 173.584 11.2881 174.229 11.376L174.053 11.0537C173.428 9.90137 173.008 8.86133 172.793 7.93359L173.247 8.21191ZM186.24 2.7627C188.555 1.4248 191.045 0.755859 193.711 0.755859C195.781 0.755859 197.485 1.20508 198.823 2.10352C200.171 3.00195 200.845 4.14453 200.845 5.53125C200.845 6.66406 200.405 7.66992 199.526 8.54883C198.647 9.41797 197.446 10.0479 195.923 10.4385C196.597 12.2939 197.51 14.1006 198.662 15.8584C199.824 17.6162 200.986 18.9639 202.148 19.9014L201.929 19.9746C200.474 20.4727 199.048 21.1758 197.651 22.084L197.432 22.2305L197.358 21.7617C196.733 17.9824 195.859 14.7793 194.736 12.1523L194.678 12.0059C194.004 12.3184 193.101 12.5674 191.968 12.7529L191.851 12.7676V18.2461L194.429 21H186.855L186.621 20.6045H193.594L191.47 18.3486V12.4453L191.777 12.4014C192.891 12.2842 193.823 12.0645 194.575 11.7422C194.517 11.625 194.482 11.5518 194.473 11.5225L194.326 11.0977C194.316 11.0684 194.292 11.0098 194.253 10.9219C193.647 11.0977 192.505 11.2881 190.825 11.4932L190.664 11.5225V18.0557L192.334 19.7988H185.859L187.764 18.0557V13.1338L187.646 13.1484C187.08 13.2754 186.567 13.417 186.108 13.5732L185.991 13.6172L185.859 13.3242C186.289 13.1582 186.626 13.0459 186.87 12.9873L187.646 12.7969L187.764 12.7676V12.0059C187.188 12.0059 186.47 12.1328 185.61 12.3867L185.449 12.4453C185.469 12.3086 185.566 11.9912 185.742 11.4932C185.762 11.4541 185.83 11.2344 185.947 10.834C185.957 10.8047 185.972 10.7607 185.991 10.7021C186.431 10.7314 186.772 10.7461 187.017 10.7461C187.28 10.7461 187.524 10.7314 187.749 10.7021V3.49512C187.3 3.22168 186.836 2.99219 186.357 2.80664L186.24 2.7627ZM190.664 2.38184V10.2773C190.947 10.2773 191.216 10.2529 191.47 10.2041V2.99707C192.007 2.85059 192.651 2.77734 193.403 2.77734C195.308 2.77734 196.602 3.40234 197.285 4.65234C196.562 4.06641 195.928 3.66602 195.381 3.45117C194.834 3.22656 194.18 3.11426 193.418 3.11426C192.822 3.11426 192.3 3.17285 191.851 3.29004V10.2041L192.012 10.1748C193.936 9.82324 195.361 9.27148 196.289 8.51953C197.227 7.75781 197.695 6.77148 197.695 5.56055C197.695 4.47656 197.275 3.58301 196.436 2.87988C195.596 2.16699 194.536 1.81055 193.257 1.81055C192.231 1.81055 191.367 2.00098 190.664 2.38184ZM197.739 11.1709C198.354 13.1826 199.443 15.1504 201.006 17.0742C201.982 18.2754 203.218 19.3545 204.712 20.3115C202.476 20.9072 200.376 21.8154 198.413 23.0361L198.281 23.124L197.988 22.8896C199.854 21.6689 201.841 20.7705 203.95 20.1943C201.138 18.3193 198.926 15.3213 197.314 11.2002L197.227 10.9512C200.215 9.81836 201.709 8.08984 201.709 5.76562C201.709 4.80859 201.323 3.76367 200.552 2.63086C201.538 3.5293 202.031 4.67187 202.031 6.05859C202.031 8.30469 200.601 10.0088 197.739 11.1709ZM228.003 1.00488L227.769 1.2832C226.772 2.50391 225.981 3.90527 225.396 5.4873C225.298 5.2627 225.225 5.09668 225.176 4.98926C224.639 3.81738 224.062 3.06055 223.447 2.71875C222.832 2.37695 221.729 2.20605 220.137 2.20605C219.404 2.20605 218.525 2.23047 217.5 2.2793V9.01758H218.438V3.05566C219.18 2.9873 219.888 2.95312 220.562 2.95312C221.802 2.95312 222.715 3.08496 223.301 3.34863C223.887 3.6123 224.409 4.125 224.868 4.88672C224.731 4.78906 224.634 4.71582 224.575 4.66699C223.784 4.04199 223.213 3.6709 222.861 3.55371C222.51 3.43652 221.816 3.37793 220.781 3.37793C220.469 3.37793 219.912 3.39746 219.111 3.43652L218.804 3.45117V9.01758H221.499L223.389 6.4248V12.7383L221.499 10.292H217.5V18.5098H218.438V10.9805H221.616L221.997 11.3613H218.804V18.5098C220.796 18.5098 222.212 18.3682 223.052 18.085C223.892 17.8018 224.551 17.2451 225.029 16.415L225.806 15.082C225.835 15.0234 225.894 14.916 225.981 14.7598C226.235 15.834 226.548 16.6934 226.919 17.3379C227.3 17.9824 227.925 18.7344 228.794 19.5938H212.373L214.6 17.8945V11.3613C213.779 11.459 213.037 11.7129 212.373 12.123L212.168 11.8154C212.764 11.3857 213.574 11.1074 214.6 10.9805V10.292C214.434 10.2725 214.316 10.2627 214.248 10.2627C213.252 10.2627 212.344 10.6289 211.523 11.3613C211.973 9.79883 212.998 9.01758 214.6 9.01758V2.7627L212.373 1.00488H228.003ZM228.706 2.03027L228.604 2.16211C227.412 3.76367 226.616 5.10645 226.216 6.19043L225.967 5.88281C226.621 4.36914 227.466 2.98242 228.501 1.72266L228.706 2.03027ZM224.399 6.9082V13.3828L224.033 13.1924V6.71777L224.399 6.9082ZM230.464 19.6816L229.702 21H213.706L213.472 20.6045H229.512L230.01 19.6816C228.604 18.3828 227.612 16.9961 227.036 15.5215L227.505 15.6973C228.042 16.9473 228.95 18.1973 230.229 19.4473L230.464 19.6816Z" fill="black"/>
</svg>